<?xml version="1.0" encoding="UTF-8"?>
<svg version="1.1" xmlns="http://www.w3.org/2000/svg" width="1068" height="318">
<path d="M0 0 C352.44 0 704.88 0 1068 0 C1068 104.94 1068 209.88 1068 318 C715.56 318 363.12 318 0 318 C0 213.06 0 108.12 0 0 Z " fill="#A2A9AC" transform="translate(0,0)"/>
<path d="M0 0 C1.0037542 -0.0076664 1.0037542 -0.0076664 2.02778625 -0.01548767 C4.22459028 -0.02930741 6.42107777 -0.02843233 8.61791992 -0.02612305 C10.1572023 -0.03001495 11.69648361 -0.03435063 13.23576355 -0.03910828 C16.45766687 -0.0465547 19.6794606 -0.04629127 22.90136719 -0.04101562 C27.01008022 -0.03523142 31.11834092 -0.05213398 35.22697926 -0.0753603 C38.40564046 -0.0901662 41.58419455 -0.09095993 44.76288414 -0.08785057 C46.27659689 -0.08836062 47.79031615 -0.09353835 49.30399513 -0.10366249 C67.51460225 -0.21050008 67.51460225 -0.21050008 75.03588867 5.5871582 C79.75978193 11.93488977 78.48965944 21.71731229 78.03588867 29.2746582 C77.18689553 33.36586925 75.59730865 35.74130922 72.53588867 38.6496582 C68.21912079 41.45555732 64.29050527 41.47665854 59.30541992 41.59106445 C58.55499924 41.61184555 57.80457855 41.63262665 57.03141785 41.65403748 C54.63716683 41.71935747 52.24280729 41.77833613 49.84838867 41.8371582 C48.22402855 41.88036013 46.59967935 41.92397496 44.9753418 41.96801758 C40.99563496 42.07502083 37.0158191 42.17633758 33.03588867 42.2746582 C34.10436035 42.76345459 35.17283203 43.25225098 36.27368164 43.75585938 C40.28148491 45.58988042 44.28822983 47.42620386 48.29467773 49.26318359 C50.02063197 50.05416542 51.74686316 50.84454326 53.47338867 51.63427734 C79.13463867 63.3734082 79.13463867 63.3734082 81.03588867 65.2746582 C81.33020086 68.070624 81.37361176 69.7117864 79.91088867 72.1496582 C77.02980077 73.87831094 75.27315196 73.04684945 72.03588867 72.2746582 C69.17144543 71.12813786 66.42421883 69.76951169 63.66088867 68.3996582 C61.96239494 67.57654586 60.26313911 66.75500475 58.56323242 65.93481445 C57.66588379 65.50056152 56.76853516 65.06630859 55.84399414 64.61889648 C49.99331833 61.81818174 44.08757596 59.13553157 38.17993164 56.45751953 C33.09991187 54.15222199 28.04937705 51.80786462 23.03979492 49.3527832 C22.07211182 48.88799561 21.10442871 48.42320801 20.10742188 47.94433594 C18.29350402 47.07182842 16.48774489 46.18203692 14.69287109 45.27099609 C8.20823461 42.19005451 2.1936273 41.30375838 -4.96411133 42.2746582 C-8.16555048 43.93185826 -8.16555048 43.93185826 -8.62817383 46.7590332 C-9.15340889 52.25567917 -9.2843527 57.76325905 -9.39379883 63.2824707 C-9.44020508 64.58571289 -9.44020508 64.58571289 -9.48754883 65.9152832 C-9.50736816 66.70451172 -9.5271875 67.49374023 -9.54760742 68.30688477 C-9.96411133 70.2746582 -9.96411133 70.2746582 -12.96411133 72.2746582 C-16.15161133 71.8996582 -16.15161133 71.8996582 -18.96411133 71.2746582 C-19.01372483 67.09376629 -19.04993149 62.91303254 -19.07397461 58.73193359 C-19.08400279 57.31100477 -19.09762874 55.89009643 -19.11499023 54.46923828 C-19.13937954 52.42125377 -19.15062623 50.37354323 -19.15942383 48.32543945 C-19.17513428 46.47946167 -19.17513428 46.47946167 -19.19116211 44.59619141 C-18.96411133 41.2746582 -18.96411133 41.2746582 -17.8269043 38.58398438 C-16.6759172 36.31294137 -16.6759172 36.31294137 -17.81811523 34.27416992 C-18.19629395 33.61433105 -18.57447266 32.95449219 -18.96411133 32.2746582 C-19.40556085 28.66070758 -19.33436785 25.03790793 -19.33911133 21.3996582 C-19.36360352 20.41868164 -19.3880957 19.43770508 -19.41333008 18.42700195 C-19.43790531 12.35691958 -18.97229217 8.90865167 -14.96411133 4.2746582 C-10.8208476 0.13139447 -5.6035502 0.02145984 0 0 Z " fill="#151B22" transform="translate(259.964111328125,116.725341796875)"/>
<path d="M0 0 C1.53499419 -0.0001553 3.06998876 -0.00164933 4.60498047 -0.00440979 C7.80909742 -0.0057879 11.01276354 0.00666462 14.21679688 0.02954102 C18.30193779 0.05792418 22.38633084 0.05518055 26.4715271 0.0424509 C29.63735218 0.03546055 32.80300763 0.04332105 35.96881104 0.05570793 C37.4741348 0.06018992 38.97947698 0.06058802 40.48480225 0.05664253 C59.09473592 0.03069005 59.09473592 0.03069005 64.73095703 4.87696838 C69.19188752 9.85816173 69.48220244 14.71314976 69.40625 21.140625 C69.125 23.49609375 69.125 23.49609375 67.4375 26.18359375 C65.125 27.49609375 65.125 27.49609375 62.5 27.43359375 C60.125 26.49609375 60.125 26.49609375 58.125 23.49609375 C57.8323428 20.91652961 57.74786691 18.36756505 57.6640625 15.7734375 C57.36874407 13.40250633 57.36874407 13.40250633 55.52130127 12.36795044 C52.33647076 11.20919974 49.63502399 11.25684906 46.24511719 11.26904297 C45.56178314 11.26875092 44.8784491 11.26845886 44.17440796 11.26815796 C41.92343294 11.26954751 39.67279196 11.28509073 37.421875 11.30078125 C35.85817648 11.30451272 34.29447562 11.30735906 32.73077393 11.30935669 C28.62078362 11.31698261 24.5109353 11.33662211 20.40100098 11.35876465 C16.20485352 11.37924553 12.00868306 11.3883632 7.8125 11.3984375 C-0.41673173 11.41986903 -8.64584819 11.45399236 -16.875 11.49609375 C-17.80468341 14.93370662 -18.00885107 17.98718887 -18 21.55859375 C-18.00257813 22.60144531 -18.00515625 23.64429688 -18.0078125 24.71875 C-17.99637157 27.58290003 -17.99637157 27.58290003 -16.875 30.49609375 C-15.529823 30.50156219 -15.529823 30.50156219 -14.1574707 30.50714111 C-5.68324419 30.54509462 2.79060034 30.60203074 11.26455688 30.67999649 C15.62055919 30.7194128 19.97636111 30.75162977 24.33251953 30.76708984 C28.54084393 30.78229522 32.74861724 30.81680877 36.95669556 30.86440277 C38.55770055 30.87917676 40.15878424 30.88713247 41.75985718 30.8879776 C57.3932333 30.9045208 57.3932333 30.9045208 64.125 35.49609375 C69.82713435 41.34443667 69.41342753 47.08038792 69.33984375 54.9375 C68.97257024 61.02088482 67.99260548 65.62848827 63.625 69.99609375 C59.30004787 72.59106503 55.90559408 72.64051163 50.93481445 72.68896484 C50.20595535 72.69714233 49.47709625 72.70531982 48.72615051 72.71374512 C46.31353569 72.73855961 43.90097966 72.75510724 41.48828125 72.76953125 C40.24967378 72.77751677 40.24967378 72.77751677 38.98604393 72.7856636 C34.61318262 72.81238133 30.24034968 72.83175839 25.86743164 72.84619141 C22.25617054 72.85951619 18.64547644 72.88734312 15.03442383 72.92822266 C10.66721239 72.97765817 6.30051417 73.00232595 1.9330349 73.00941849 C0.27331121 73.01611282 -1.38640185 73.03128744 -3.04596519 73.0553093 C-18.70780836 73.2690308 -18.70780836 73.2690308 -24.53791809 68.82168579 C-29.40280194 63.99860706 -29.22394111 58.78480783 -29.2734375 52.30078125 C-28.83039297 49.18209527 -27.96252939 47.80452572 -25.875 45.49609375 C-20 46.37109375 -20 46.37109375 -18.875 47.49609375 C-18.66543117 49.28325019 -18.50688384 51.07653144 -18.375 52.87109375 C-18.14263656 56.01629884 -17.87624031 58.49237282 -16.875 61.49609375 C-7.53918209 61.51924783 1.79662597 61.53702451 11.13246632 61.54790592 C15.46730881 61.55312802 19.80213169 61.56021351 24.13696289 61.5715332 C28.31906515 61.58238592 32.50114852 61.58837567 36.68326378 61.59097099 C38.28008001 61.59282093 39.87689518 61.5964333 41.47370338 61.60182381 C43.70750806 61.60906585 45.94123433 61.61008335 48.17504883 61.60961914 C49.44745926 61.61183975 50.71986969 61.61406036 52.03083801 61.61634827 C55.16204936 61.63882534 55.16204936 61.63882534 58.125 60.49609375 C58.06514838 57.86860744 57.97823776 55.2469238 57.875 52.62109375 C57.86082031 51.87472656 57.84664062 51.12835938 57.83203125 50.359375 C57.76513659 47.92470994 57.76513659 47.92470994 57.125 44.49609375 C53.82693168 42.02725918 50.46511495 42.2391946 46.46386719 42.22485352 C45.47277199 42.2170134 45.47277199 42.2170134 44.46165466 42.20901489 C43.03048825 42.19879517 41.59928488 42.19299802 40.16808319 42.1911335 C37.89705721 42.18745985 35.62646407 42.17070448 33.35552979 42.15037537 C26.90002526 42.09507208 20.44445641 42.06435908 13.98876953 42.03979492 C10.03529898 42.02384756 6.08213388 41.99355047 2.12882233 41.95503044 C0.62828077 41.94343944 -0.8723156 41.93745061 -2.37290192 41.93734932 C-19.98002437 41.93573045 -19.98002437 41.93573045 -25.50250244 37.05885315 C-30.59285088 31.26285751 -29.45323657 21.62923034 -29.05712891 14.42919922 C-28.66857181 10.30507708 -27.64903895 7.5425456 -24.875 4.49609375 C-17.45631756 -0.72475086 -8.65588521 -0.07174083 0 0 Z " fill="#161C23" transform="translate(829.875,116.50390625)"/>
<path d="M0 0 C0.66887741 -0.0049649 1.33775482 -0.00992981 2.02690125 -0.01504517 C4.23449749 -0.02961958 6.44202179 -0.0364622 8.6496582 -0.04199219 C10.19179789 -0.04774917 11.73393758 -0.05350683 13.27607727 -0.05926514 C16.50990124 -0.06976286 19.74370046 -0.07561301 22.97753906 -0.07910156 C27.10197339 -0.08457231 31.22607527 -0.10857484 35.35040569 -0.13707352 C38.53763248 -0.15579037 41.7247808 -0.16091036 44.91205788 -0.16243744 C46.43136212 -0.16544602 47.95066559 -0.17341326 49.46991539 -0.18662262 C68.38894024 -0.33932576 68.38894024 -0.33932576 73.91996765 4.65838623 C77.51092916 8.67656824 77.57282726 12.57589345 77.51293945 17.78613281 C77.52454102 18.80707031 77.52454102 18.80707031 77.53637695 19.84863281 C77.51638067 24.90769159 77.51638067 24.90769159 75.26293945 27.16113281 C71.70043945 26.91113281 71.70043945 26.91113281 68.26293945 26.16113281 C66.72744714 23.09014819 66.82025775 19.86532904 66.54418945 16.47363281 C66.39157898 14.13844826 66.39157898 14.13844826 65.26293945 12.16113281 C61.84982549 10.89226238 58.41850495 11.03422882 54.8137207 11.03173828 C52.8514856 11.02701004 52.8514856 11.02701004 50.84960938 11.02218628 C49.42488572 11.02397622 48.00016238 11.02602722 46.57543945 11.02832031 C45.11100244 11.02764644 43.64656554 11.02667572 42.18212891 11.02542114 C39.11563042 11.02394809 36.0491611 11.02608612 32.98266602 11.03076172 C29.05515725 11.03645877 25.12771683 11.03317767 21.20021057 11.02718925 C18.17703742 11.02357305 15.15388043 11.02472711 12.13070679 11.02731705 C10.68264762 11.02798338 9.23458698 11.02716815 7.78652954 11.02483749 C5.76173939 11.02229366 3.73694408 11.02685932 1.7121582 11.03173828 C0.56062256 11.03253387 -0.59091309 11.03332947 -1.77734375 11.03414917 C-4.28634994 11.14179553 -6.35020371 11.42589078 -8.73706055 12.16113281 C-8.79088161 14.7864047 -8.83064367 17.41057994 -8.86206055 20.03613281 C-8.87881836 20.7825 -8.89557617 21.52886719 -8.9128418 22.29785156 C-8.93045644 24.25307743 -8.84026244 26.20855303 -8.73706055 28.16113281 C-5.94800115 30.95019221 -4.24192654 30.4183503 -0.3347168 30.43237305 C0.3225087 30.43759979 0.97973419 30.44282654 1.65687561 30.44821167 C3.08698128 30.45846515 4.51712441 30.46423442 5.94726562 30.46609306 C8.21868225 30.46975598 10.48966186 30.48648503 12.76098633 30.5068512 C19.22005021 30.56223613 25.67918142 30.59278484 32.13842773 30.61743164 C36.08960071 30.63341684 40.04047072 30.6637616 43.9914856 30.70219612 C45.49037426 30.71376412 46.98931744 30.71977575 48.48825073 30.71987724 C67.85611793 30.72166235 67.85611793 30.72166235 74.82543945 36.16113281 C78.04799493 40.64468826 77.51815934 45.559769 77.57543945 50.84863281 C77.61894531 52.15864258 77.61894531 52.15864258 77.66333008 53.49511719 C77.71866582 59.19469906 77.28574402 64.7930994 73.26293945 69.16113281 C68.25594305 71.68487513 64.58329606 72.53851511 58.89404297 72.54931641 C58.19386047 72.55457336 57.49367798 72.55983032 56.77227783 72.56524658 C54.47856735 72.57835233 52.18556213 72.56974167 49.8918457 72.55957031 C48.28433602 72.561594 46.67682724 72.56450789 45.06932068 72.56826782 C41.70790832 72.5726786 38.34673592 72.56630138 34.98535156 72.55224609 C30.69382615 72.53516863 26.40286429 72.54499394 22.1113596 72.56296349 C18.79375527 72.573847 15.47628271 72.57033391 12.15867424 72.56258011 C10.57715728 72.56058998 8.99562806 72.5629953 7.41412544 72.57001877 C-8.11272047 72.62384426 -8.11272047 72.62384426 -14.73706055 69.16113281 C-19.20397753 64.5796795 -19.90246022 60.92155666 -19.98706055 54.66113281 C-20.0128418 53.51644531 -20.03862305 52.37175781 -20.06518555 51.19238281 C-19.73706055 48.16113281 -19.73706055 48.16113281 -18.3815918 46.24316406 C-16.73706055 45.16113281 -16.73706055 45.16113281 -14.17456055 45.34863281 C-11.73706055 46.16113281 -11.73706055 46.16113281 -9.73706055 48.16113281 C-9.39261086 50.98649223 -9.29444187 53.78662298 -9.1784668 56.62988281 C-8.9599707 57.88285156 -8.9599707 57.88285156 -8.73706055 59.16113281 C-5.08727921 61.59432037 -3.35115746 61.41430005 0.99755859 61.41992188 C1.67753403 61.42342651 2.35750946 61.42693115 3.05809021 61.43054199 C5.30486265 61.43934206 7.55132008 61.43351705 9.7980957 61.42675781 C11.35843466 61.42810481 12.9187732 61.43004562 14.47911072 61.43255615 C17.74832151 61.43550494 21.017423 61.43121711 24.28662109 61.421875 C28.48234012 61.4104711 32.67780354 61.41704731 36.87351322 61.42901993 C40.09478186 61.43623712 43.31598961 61.43395143 46.53726006 61.42876434 C48.08466052 61.42742794 49.63206647 61.42907523 51.17946053 61.43372345 C53.33902831 61.43878749 55.49817828 61.43108103 57.65771484 61.41992188 C58.88776749 61.41833069 60.11782013 61.4167395 61.38514709 61.4151001 C64.39204973 61.46016129 64.39204973 61.46016129 66.26293945 59.16113281 C66.5452373 55.87243336 66.5452373 55.87243336 66.45043945 52.16113281 C66.44399414 50.90300781 66.43754883 49.64488281 66.4309082 48.34863281 C66.48123986 45.26479491 66.48123986 45.26479491 65.26293945 43.16113281 C61.84872917 42.02306272 59.20874375 42.022658 55.60766602 42.00341797 C54.93572205 41.99833725 54.26377808 41.99325653 53.57147217 41.98802185 C52.11299183 41.9773283 50.65449519 41.96870414 49.19599152 41.96190262 C46.88340255 41.95009235 44.57099856 41.93063271 42.25848389 41.90878296 C35.6835348 41.84724876 29.10860404 41.79320027 22.53344727 41.75976562 C18.50978996 41.73875597 14.48646931 41.70340048 10.46300507 41.65900803 C8.93373339 41.64489512 7.40440215 41.63613627 5.87506866 41.63295364 C3.72828756 41.62801441 1.58239072 41.60478045 -0.56420898 41.57763672 C-2.39263336 41.56550644 -2.39263336 41.56550644 -4.25799561 41.5531311 C-9.42621883 40.9708095 -13.36068284 39.53751052 -17.11206055 35.78613281 C-20.09671982 30.96476013 -19.94560092 25.83135796 -19.98706055 20.28613281 C-20.00768555 19.60421875 -20.02831055 18.92230469 -20.04956055 18.21972656 C-20.08821713 13.14605016 -19.12514339 9.65766351 -16.73706055 5.16113281 C-11.151805 0.64539429 -7.01938819 0.03969179 0 0 Z " fill="#151B22" transform="translate(44.737060546875,116.8388671875)"/>
<path d="M0 0 C0.79599609 -0.00350464 1.59199219 -0.00700928 2.41210938 -0.01062012 C5.02190069 -0.01936535 7.63141726 -0.0136162 10.24121094 -0.00683594 C12.06248018 -0.00818413 13.88374907 -0.01012594 15.70501709 -0.01263428 C19.51106208 -0.0155753 23.31701287 -0.01131881 27.12304688 -0.00195312 C32.00459357 0.00947333 36.8859211 0.00285535 41.76745987 -0.00909805 C45.5231899 -0.01631657 49.27886772 -0.01402932 53.0345993 -0.00884247 C54.83516211 -0.00750763 56.63572964 -0.00914789 58.43628693 -0.01380157 C60.94723638 -0.01887022 63.45782732 -0.01115339 65.96875 0 C66.71372742 -0.00404846 67.45870483 -0.00809692 68.22625732 -0.01226807 C71.94477888 0.01839293 73.54766588 0.14017569 76.72558594 2.25878906 C76.98218688 5.33800038 77.11990097 7.47015899 75.72558594 10.25878906 C74.69241745 10.26687592 73.65924896 10.27496277 72.59477234 10.28329468 C62.86822469 10.36070793 53.14181776 10.44843493 43.41545391 10.54631615 C38.4147743 10.59630744 33.41411612 10.64263721 28.41333008 10.68066406 C23.58921819 10.71748109 18.76528429 10.76383124 13.94132423 10.81685257 C12.09892708 10.83541559 10.25649175 10.85051647 8.4140377 10.86213303 C5.83760646 10.8789629 3.26158454 10.90798973 0.68530273 10.93994141 C-0.08002274 10.94210159 -0.84534821 10.94426178 -1.63386536 10.94648743 C-5.38118204 11.00603643 -7.07687019 11.12709314 -10.27441406 13.25878906 C-10.49527046 16.20943054 -10.55502396 18.94247137 -10.46191406 21.88378906 C-10.44837891 22.68558594 -10.43484375 23.48738281 -10.42089844 24.31347656 C-10.38550458 26.29553284 -10.3316964 28.27724458 -10.27441406 30.25878906 C-9.51686325 30.26687592 -8.75931244 30.27496277 -7.97880554 30.28329468 C-0.84225729 30.3612108 6.29408563 30.44849215 13.43038654 30.54631615 C17.09930446 30.59627847 20.76819359 30.64260833 24.43725586 30.68066406 C27.97760338 30.71751797 31.51771007 30.76387783 35.05785179 30.81685257 C37.06691511 30.84442529 39.07610593 30.86213232 41.08528137 30.87973022 C42.30632065 30.89959991 43.52735992 30.9194696 44.78540039 30.93994141 C45.862397 30.95326508 46.93939362 30.96658875 48.04902649 30.98031616 C50.72558594 31.25878906 50.72558594 31.25878906 53.72558594 33.25878906 C53.98218688 36.33800038 54.11990097 38.47015899 52.72558594 41.25878906 C51.9805632 41.26687592 51.23554047 41.27496277 50.46794128 41.28329468 C43.44912403 41.36121354 36.43050044 41.44849585 29.41193676 41.54631615 C25.80355364 41.59627665 22.19519977 41.64260651 18.58666992 41.68066406 C15.10467466 41.7175203 11.62292416 41.76388077 8.14113808 41.81685257 C6.1653148 41.84442292 4.18936194 41.86213156 2.21342468 41.87973022 C1.01240616 41.89959991 -0.18861237 41.9194696 -1.42602539 41.93994141 C-3.01487297 41.95992691 -3.01487297 41.95992691 -4.63581848 41.98031616 C-7.50408079 42.07656639 -7.50408079 42.07656639 -10.27441406 44.25878906 C-10.49527046 47.20943054 -10.55502396 49.94247137 -10.46191406 52.88378906 C-10.44837891 53.68558594 -10.43484375 54.48738281 -10.42089844 55.31347656 C-10.38550458 57.29553284 -10.3316964 59.27724458 -10.27441406 61.25878906 C-8.70586922 61.27091934 -8.70586922 61.27091934 -7.1056366 61.28329468 C2.73863896 61.36070642 12.58277546 61.44843305 22.42686939 61.54631615 C27.4880835 61.59630839 32.54927643 61.64263816 37.6105957 61.68066406 C42.49306099 61.71747988 47.37535039 61.7638297 52.25766563 61.81685257 C54.12239185 61.83541624 55.98715581 61.85051687 57.85193825 61.86213303 C60.45950034 61.87896179 63.06665786 61.90798839 65.67407227 61.93994141 C66.44874847 61.94210159 67.22342468 61.94426178 68.02157593 61.94648743 C71.7869448 62.0056151 73.51411308 62.11780716 76.72558594 64.25878906 C77.03808594 67.25878906 77.03808594 67.25878906 76.72558594 70.25878906 C74.21164564 72.77272936 72.66536377 72.50613333 69.23486328 72.54095459 C68.46916016 72.53847717 67.70345703 72.53599976 66.91455078 72.53344727 C66.10780914 72.5385582 65.3010675 72.54366913 64.46987915 72.54893494 C61.7920192 72.56287915 59.11441547 72.5618696 56.43652344 72.55957031 C54.5752452 72.56345658 52.71396785 72.56779111 50.85269165 72.57255554 C46.9435947 72.58002956 43.03458801 72.57971939 39.12548828 72.57446289 C34.12875819 72.56868785 29.13240114 72.58554576 24.13573265 72.60880756 C20.28713843 72.62358572 16.43863298 72.62441069 12.59001541 72.62129784 C10.7489206 72.6218097 8.90782064 72.62702198 7.06675339 72.63710976 C4.48192413 72.64952643 1.89780722 72.64264985 -0.68701172 72.63110352 C-1.44056946 72.63874725 -2.1941272 72.64639099 -2.97052002 72.65426636 C-9.2981669 72.59218167 -15.0310058 71.44467404 -19.71191406 66.88378906 C-23.34209754 58.46176338 -22.55062702 49.62017283 -20.74707031 40.81738281 C-20.16763797 37.68078622 -19.81526993 35.17707732 -21.27441406 32.25878906 C-22.53649193 22.88881701 -23.84880009 12.2629295 -18.08691406 4.19628906 C-12.51146567 0.35542462 -6.59878567 -0.03625409 0 0 Z " fill="#161C23" transform="translate(373.2744140625,116.7412109375)"/>
<path d="M0 0 C5.01886851 4.69348018 8.58647919 10.05082939 9.17297363 17.06967163 C9.25223321 19.70355106 9.26547579 22.32979538 9.25390625 24.96484375 C9.2558197 25.92586502 9.25773315 26.88688629 9.25970459 27.87702942 C9.26106108 29.90003726 9.25740221 31.92305397 9.24902344 33.94604492 C9.23828113 37.04690964 9.24895503 40.14719966 9.26171875 43.24804688 C9.26039775 45.21614711 9.25783659 47.18424699 9.25390625 49.15234375 C9.25795471 50.08048386 9.26200317 51.00862396 9.26617432 51.96488953 C9.25671783 53.25687004 9.25671783 53.25687004 9.24707031 54.57495117 C9.24547913 55.33184738 9.24388794 56.08874359 9.24224854 56.86857605 C8.98828125 58.859375 8.98828125 58.859375 6.98828125 61.859375 C4.05078125 62.296875 4.05078125 62.296875 0.98828125 61.859375 C-1.08895139 60.07862896 -1.91063159 58.59016593 -2.28613281 55.87554932 C-2.40673705 53.33745706 -2.42648809 50.81438689 -2.41796875 48.2734375 C-2.42880493 47.3388974 -2.43964111 46.4043573 -2.45080566 45.4414978 C-2.48506231 42.45571981 -2.50065612 39.47032365 -2.51171875 36.484375 C-2.52631161 32.55952982 -2.56005525 28.63553375 -2.60546875 24.7109375 C-2.60244751 23.81388092 -2.59942627 22.91682434 -2.59631348 21.99258423 C-2.6716822 15.67504868 -3.60549803 11.22425172 -8.28515625 6.625 C-21.72836191 -2.08034235 -43.69358663 -1.11705428 -58.80078125 1.58984375 C-65.29215154 3.03989445 -72.04642833 5.27279317 -77.01171875 9.859375 C-79.26792006 13.58701195 -79.41617676 17.58548544 -80.01171875 21.859375 C-79.21658371 21.85271317 -78.42144867 21.84605133 -77.60221863 21.83918762 C-70.11265415 21.77910259 -62.62320636 21.73341405 -55.13346386 21.70393848 C-51.28280044 21.6882754 -47.432336 21.66702577 -43.58178711 21.63305664 C-39.86650446 21.60048554 -36.15141331 21.58252683 -32.43599892 21.57474327 C-31.0177846 21.56919566 -29.59958088 21.55836256 -28.18144798 21.54218483 C-26.19683408 21.5204431 -24.21202789 21.51914987 -22.22729492 21.51879883 C-20.53185799 21.50880608 -20.53185799 21.50880608 -18.8021698 21.49861145 C-16.01171875 21.859375 -16.01171875 21.859375 -14.11152649 23.18925476 C-13.01171875 24.859375 -13.01171875 24.859375 -13.19921875 27.921875 C-14.01171875 30.859375 -14.01171875 30.859375 -16.01171875 32.859375 C-18.68191528 33.09988403 -18.68191528 33.09988403 -22.11376953 33.08642578 C-23.39494659 33.08627472 -24.67612366 33.08612366 -25.99612427 33.08596802 C-27.39976149 33.07575395 -28.80339715 33.06532195 -30.20703125 33.0546875 C-31.6390666 33.05095791 -33.0711045 33.04811069 -34.50314331 33.04611206 C-38.27450592 33.03847127 -42.04571479 33.01881908 -45.8170166 32.9967041 C-49.66444824 32.97625519 -53.51190469 32.9671124 -57.359375 32.95703125 C-64.91022639 32.9355735 -72.46095104 32.90143232 -80.01171875 32.859375 C-79.98815308 34.01723511 -79.98815308 34.01723511 -79.96411133 35.19848633 C-79.90182268 38.68954162 -79.86274702 42.18048009 -79.82421875 45.671875 C-79.79908203 46.88681641 -79.77394531 48.10175781 -79.74804688 49.35351562 C-79.73354492 51.09858398 -79.73354492 51.09858398 -79.71875 52.87890625 C-79.69518433 54.48922729 -79.69518433 54.48922729 -79.67114258 56.13208008 C-80.01171875 58.859375 -80.01171875 58.859375 -81.3034668 60.74487305 C-83.01171875 61.859375 -83.01171875 61.859375 -86.63671875 61.671875 C-87.75046875 61.40375 -88.86421875 61.135625 -90.01171875 60.859375 C-91.60755723 57.66769803 -91.17474633 54.2087198 -91.1796875 50.703125 C-91.1830159 49.88622192 -91.1863443 49.06931885 -91.18977356 48.22766113 C-91.19484424 46.49260013 -91.19718184 44.75752934 -91.19702148 43.02246094 C-91.1991872 40.39761636 -91.21728297 37.7732065 -91.23632812 35.1484375 C-91.32156975 10.22931982 -91.32156975 10.22931982 -83.37109375 2.203125 C-74.92893519 -5.28470259 -65.82618408 -8.36748151 -54.69921875 -9.390625 C-53.84038086 -9.47070801 -52.98154297 -9.55079102 -52.09667969 -9.63330078 C-34.94546165 -11.02874935 -14.15832286 -11.13629428 0 0 Z " fill="#1B2128" transform="translate(659.01171875,127.140625)"/>
<path d="M0 0 C4.66048541 0.52711459 7.75512575 1.75046785 11.7265625 4.21875 C13.37688477 5.23352417 13.37688477 5.23352417 15.06054688 6.26879883 C16.2487464 7.0124551 17.43689612 7.75619094 18.625 8.5 C19.86720246 9.26755058 21.11005292 10.03405331 22.35351562 10.79956055 C24.94167085 12.39404238 27.5269673 13.99301555 30.11035156 15.59521484 C35.6289642 19.01314653 41.18016685 22.37719949 46.73193359 25.74090576 C48.50032344 26.81269603 50.26785768 27.88588407 52.03515625 28.95947266 C59.5845453 33.54438232 67.14683816 38.10726885 74.73242188 42.63208008 C83.19473653 47.68899553 91.59243156 52.85279817 100 58 C99.99000725 56.97642647 99.99000725 56.97642647 99.97981262 55.93217468 C99.91355171 48.8435842 99.8682378 41.75508139 99.83520508 34.66625977 C99.8200988 32.01908801 99.7996127 29.37194136 99.77368164 26.72485352 C99.73738009 22.92457899 99.72029197 19.12463474 99.70703125 15.32421875 C99.69154739 14.13664474 99.67606354 12.94907074 99.66011047 11.72550964 C99.65988388 10.62459488 99.65965729 9.52368011 99.65942383 8.3894043 C99.64943108 6.93379341 99.64943108 6.93379341 99.63923645 5.44877625 C100 3 100 3 101.36112976 1.15144348 C103 0 103 0 105.5625 0.1875 C108 1 108 1 110 3 C110.25396729 5.72593689 110.25396729 5.72593689 110.25878906 9.23803711 C110.26509338 10.5495726 110.27139771 11.86110809 110.27789307 13.21238708 C110.27431303 14.65070733 110.270211 16.08902636 110.265625 17.52734375 C110.26697181 18.99703536 110.26891247 20.46672654 110.27142334 21.93641663 C110.2743748 25.01909622 110.27007695 28.10166002 110.26074219 31.18432617 C110.24935756 35.1367234 110.25590056 39.08884872 110.26788712 43.04123592 C110.27511372 46.07725574 110.27281395 49.1132111 110.26763153 52.14923286 C110.26629673 53.60649205 110.26793685 55.06375708 110.27259064 56.52100945 C110.2776676 58.55819462 110.26855789 60.59540028 110.25878906 62.63256836 C110.25719788 63.79235703 110.25560669 64.95214569 110.25396729 66.14707947 C110 69 110 69 108 72 C102.95425769 72.72974869 100.08382517 71.28019898 95.8359375 68.66015625 C95.25501343 68.3070639 94.67408936 67.95397156 94.07556152 67.59017944 C92.16756121 66.42653146 90.27157194 65.2446659 88.375 64.0625 C87.03219858 63.23903297 85.68859797 62.41686787 84.34423828 61.59594727 C81.57563642 59.90291336 78.81148798 58.2029468 76.05078125 56.49707031 C72.30568569 54.18474741 68.5470781 51.89555668 64.78125 49.6171875 C64.20592026 49.26901474 63.63059052 48.92084198 63.03782654 48.56211853 C61.88786854 47.86626174 60.73787996 47.17045549 59.58786011 46.47470093 C56.72430867 44.74071332 53.86400014 43.00140163 51.00390625 41.26171875 C50.43648209 40.91661758 49.86905792 40.57151642 49.28443909 40.21595764 C45.61269751 37.98233236 41.94237744 35.74638135 38.27252197 33.50965881 C35.73118195 31.9611589 33.18903972 30.41397899 30.64678955 28.86697388 C28.8709734 27.78560685 27.0963569 26.70229119 25.32177734 25.61889648 C24.23203613 24.95575439 23.14229492 24.2926123 22.01953125 23.609375 C21.07182861 23.03155273 20.12412598 22.45373047 19.14770508 21.85839844 C15.14147991 19.49313155 11.07578414 17.24269885 7 15 C7.00444122 15.68460297 7.00888245 16.36920593 7.01345825 17.07455444 C7.05759497 24.17923909 7.0878261 31.283885 7.10986328 38.38867188 C7.11994089 41.04265931 7.13360313 43.6966356 7.15087891 46.35058594 C7.17504992 50.15823107 7.18646535 53.96572984 7.1953125 57.7734375 C7.20563507 58.96617279 7.21595764 60.15890808 7.22659302 61.38778687 C7.22674408 62.48877716 7.22689514 63.58976746 7.22705078 64.72412109 C7.231492 65.69674896 7.23593323 66.66937683 7.24050903 67.67147827 C7 70 7 70 5 72 C-1.57692308 71.42307692 -1.57692308 71.42307692 -3 70 C-3.10991059 67.96604504 -3.14912461 65.92824448 -3.16113281 63.89135742 C-3.17074036 62.58297409 -3.1803479 61.27459076 -3.19024658 59.92655945 C-3.19509465 58.48619764 -3.19937346 57.04583383 -3.203125 55.60546875 C-3.20887467 54.13674415 -3.21463242 52.66801958 -3.22039795 51.19929504 C-3.23091862 48.11487477 -3.23675393 45.03048063 -3.24023438 41.94604492 C-3.24571393 37.99478123 -3.26972554 34.04386306 -3.29820633 30.09270763 C-3.31683907 27.05665584 -3.32203869 24.02068704 -3.32357025 20.9845829 C-3.32659714 19.52813139 -3.33462695 18.07168136 -3.34775543 16.61528587 C-3.36482326 14.57586867 -3.3610898 12.53630951 -3.35644531 10.49682617 C-3.36191376 8.75594978 -3.36191376 8.75594978 -3.36749268 6.97990417 C-2.96703053 3.73265899 -2.19639102 2.36914215 0 0 Z " fill="#141A21" transform="translate(681,117)"/>
<path d="M0 0 C5.45454545 0.45454545 5.45454545 0.45454545 8 3 C8.28710938 5.38256836 8.28710938 5.38256836 8.34375 8.33984375 C8.37339844 9.40267578 8.40304688 10.46550781 8.43359375 11.56054688 C8.45550781 12.67494141 8.47742188 13.78933594 8.5 14.9375 C8.54334959 17.1343043 8.59505469 19.33096413 8.65625 21.52734375 C8.67494141 22.50437256 8.69363281 23.48140137 8.71289062 24.48803711 C8.83449652 27.24642353 8.83449652 27.24642353 11 30 C14.05804551 30.45470681 14.05804551 30.45470681 17.71289062 30.37231445 C18.4024736 30.37596512 19.09205658 30.37961578 19.80253601 30.38337708 C22.08735604 30.39149879 24.37147042 30.37785981 26.65625 30.36328125 C28.24043782 30.36276283 29.82462629 30.36327982 31.40881348 30.36479187 C34.73113593 30.36470207 38.05321608 30.35425794 41.37548828 30.33618164 C45.63963241 30.31349407 49.9034223 30.31294952 54.16761017 30.31969929 C57.43950564 30.32303667 60.71131997 30.31641358 63.98320007 30.30657005 C65.55571569 30.30271376 67.12824034 30.30157161 68.70075989 30.3031559 C70.89638546 30.3035257 73.09155251 30.29093085 75.28710938 30.2746582 C77.16335999 30.26774712 77.16335999 30.26774712 79.07751465 30.26069641 C82.12375428 30.30390111 82.12375428 30.30390111 84 28 C84.32223361 25.4294543 84.32223361 25.4294543 84.30859375 22.44140625 C84.33373047 21.33345703 84.35886719 20.22550781 84.38476562 19.08398438 C84.41986256 16.74028883 84.45112566 14.39653266 84.47851562 12.05273438 C84.50494141 10.94349609 84.53136719 9.83425781 84.55859375 8.69140625 C84.57204834 7.67248291 84.58550293 6.65355957 84.59936523 5.60375977 C85 3 85 3 86.32836914 1.12475586 C88 0 88 0 91.1875 0.3125 C92.115625 0.539375 93.04375 0.76625 94 1 C95.69562053 6.08686158 95.1845997 11.42504149 95.1875 16.75 C95.19974609 17.91789062 95.21199219 19.08578125 95.22460938 20.2890625 C95.24100559 29.93003604 95.24100559 29.93003604 93.86328125 34.015625 C92.69043722 36.91443627 92.69043722 36.91443627 93.92944336 39.27758789 C95.20668249 42.52559099 95.25869399 45.05840523 95.265625 48.54296875 C95.26949219 50.40018555 95.26949219 50.40018555 95.2734375 52.29492188 C95.26570313 53.57947266 95.25796875 54.86402344 95.25 56.1875 C95.26160156 58.13172852 95.26160156 58.13172852 95.2734375 60.11523438 C95.27085937 61.34951172 95.26828125 62.58378906 95.265625 63.85546875 C95.26336914 64.98621826 95.26111328 66.11696777 95.25878906 67.28198242 C95 70 95 70 93 72 C90 72.25 90 72.25 87 72 C84.41276794 69.41276794 84.7135558 68.26141942 84.62109375 64.66015625 C84.58693359 63.59732422 84.55277344 62.53449219 84.51757812 61.43945312 C84.47793945 59.76786133 84.47793945 59.76786133 84.4375 58.0625 C84.37757776 55.86577615 84.31394424 53.66914951 84.24609375 51.47265625 C84.22216553 50.49562744 84.1982373 49.51859863 84.17358398 48.51196289 C84.096374 45.87233099 84.096374 45.87233099 83 43 C79.66045202 41.63469506 76.1117115 41.86652367 72.55078125 41.85473633 C70.58854614 41.84516655 70.58854614 41.84516655 68.58666992 41.83540344 C67.16194699 41.83387491 65.73722356 41.83276087 64.3125 41.83203125 C62.84806282 41.82881691 61.38362596 41.8254527 59.91918945 41.82194519 C56.85269425 41.81596337 53.78622719 41.81410439 50.71972656 41.81469727 C46.79216705 41.814799 42.86478786 41.80113101 38.93727112 41.78392506 C35.91409476 41.7728043 32.89096205 41.77077806 29.86776733 41.77130699 C28.41970191 41.7701276 26.97163534 41.76570809 25.52359009 41.75797462 C23.49882335 41.74817091 21.47400362 41.75231802 19.44921875 41.75708008 C18.29768311 41.75565506 17.14614746 41.75423004 15.9597168 41.75276184 C13.08497985 41.99290126 11.42983908 42.50152649 9 44 C8.98018066 44.74161377 8.96036133 45.48322754 8.93994141 46.24731445 C8.84477072 49.60273834 8.73505906 52.95753286 8.625 56.3125 C8.5940625 57.47974609 8.563125 58.64699219 8.53125 59.84960938 C8.47324219 61.52700195 8.47324219 61.52700195 8.4140625 63.23828125 C8.3826416 64.26993408 8.3512207 65.30158691 8.31884766 66.36450195 C8 69 8 69 6 72 C3 72.3125 3 72.3125 0 72 C-2.73051703 69.26948297 -2.25792409 67.74240771 -2.265625 63.92578125 C-2.26820313 62.70052734 -2.27078125 61.47527344 -2.2734375 60.21289062 C-2.26570312 58.92576172 -2.25796875 57.63863281 -2.25 56.3125 C-2.25773438 55.04470703 -2.26546875 53.77691406 -2.2734375 52.47070312 C-2.25162337 42.04900141 -2.25162337 42.04900141 -0.859375 37.85546875 C0.32761947 35.12161609 0.32761947 35.12161609 -0.9296875 33.23803711 C-2.38564699 30.19360721 -2.25919725 27.70178045 -2.265625 24.3359375 C-2.26820313 23.04945313 -2.27078125 21.76296875 -2.2734375 20.4375 C-2.26924805 19.77105469 -2.26505859 19.10460937 -2.26074219 18.41796875 C-2.24999843 16.37470048 -2.26067338 14.33230422 -2.2734375 12.2890625 C-2.27085937 11.00515625 -2.26828125 9.72125 -2.265625 8.3984375 C-2.26336914 7.21942871 -2.26111328 6.04041992 -2.25878906 4.82568359 C-2 2 -2 2 0 0 Z " fill="#151B22" transform="translate(135,117)"/>
<path d="M0 0 C1.423125 0.4021875 1.423125 0.4021875 2.875 0.8125 C4.1876925 3.43788499 4.03557286 5.46939105 4.0859375 8.40625 C4.11429688 9.51871094 4.14265625 10.63117188 4.171875 11.77734375 C4.22395481 14.13395495 4.2682271 16.49075165 4.3046875 18.84765625 C4.335625 19.96011719 4.3665625 21.07257813 4.3984375 22.21875 C4.41825684 23.24291016 4.43807617 24.26707031 4.45849609 25.32226562 C4.59594238 26.14404297 4.73338867 26.96582031 4.875 27.8125 C8.50197167 30.23048111 10.16982522 30.0605156 14.48608398 30.05541992 C15.15309326 30.05731827 15.82010254 30.05921661 16.50732422 30.06117249 C18.71203368 30.06487679 20.91641355 30.05417976 23.12109375 30.04296875 C24.65422019 30.04177645 26.18734736 30.04132389 27.72047424 30.0415802 C30.93422009 30.04001584 34.14785446 30.03173087 37.36157227 30.01831055 C41.47856624 30.00133514 45.59543755 29.99749587 49.71246243 29.99825573 C52.87890288 29.99798359 56.04531658 29.99249511 59.21174812 29.98525429 C60.72958232 29.98207454 62.24741954 29.98010183 63.76525688 29.97936058 C65.8883974 29.97718885 68.01140879 29.96842623 70.13452148 29.95776367 C71.34236801 29.95395187 72.55021454 29.95014008 73.79466248 29.94621277 C76.35222191 29.835193 78.44562415 29.56794213 80.875 28.8125 C80.85928955 28.04059326 80.8435791 27.26868652 80.82739258 26.47338867 C80.76510393 22.98233338 80.72602827 19.49139491 80.6875 16 C80.66236328 14.78505859 80.63722656 13.57011719 80.61132812 12.31835938 C80.60166016 11.15498047 80.59199219 9.99160156 80.58203125 8.79296875 C80.5663208 7.71942139 80.55061035 6.64587402 80.53442383 5.53979492 C80.875 2.8125 80.875 2.8125 82.19799805 0.9230957 C83.875 -0.1875 83.875 -0.1875 87 0.0625 C89.875 0.8125 89.875 0.8125 90.875 1.8125 C91.09407468 5.85488807 91.06078896 9.90065889 91.06030273 13.94848633 C91.06247252 15.97434013 91.08057542 17.99963451 91.09960938 20.02539062 C91.10154297 21.30994141 91.10347656 22.59449219 91.10546875 23.91796875 C91.10957764 25.09512451 91.11368652 26.27228027 91.11791992 27.48510742 C90.875 30.8125 90.875 30.8125 89.7355957 33.9934082 C88.57373935 36.70342835 88.57373935 36.70342835 89.73339844 38.77099609 C90.11012695 39.44469238 90.48685547 40.11838867 90.875 40.8125 C91.13378906 43.89697266 91.13378906 43.89697266 91.140625 47.4765625 C91.14449219 49.40628906 91.14449219 49.40628906 91.1484375 51.375 C91.14424805 52.04144531 91.14005859 52.70789063 91.13574219 53.39453125 C91.12499843 55.43779952 91.13567338 57.48019578 91.1484375 59.5234375 C91.14585937 60.80734375 91.14328125 62.09125 91.140625 63.4140625 C91.13836914 64.59307129 91.13611328 65.77208008 91.13378906 66.98681641 C90.875 69.8125 90.875 69.8125 88.875 71.8125 C85.3125 71.5625 85.3125 71.5625 81.875 70.8125 C80.59483271 68.25216543 80.6820608 66.30102472 80.59375 63.4375 C80.53767578 61.83648437 80.53767578 61.83648437 80.48046875 60.203125 C80.41015625 57.94270833 80.33984375 55.68229167 80.26953125 53.421875 C80.21345703 51.82085937 80.21345703 51.82085937 80.15625 50.1875 C80.12595703 49.20523438 80.09566406 48.22296875 80.06445312 47.2109375 C80.02497931 44.79963088 80.02497931 44.79963088 78.875 42.8125 C75.51667624 41.69305875 72.98699435 41.68550917 69.44750977 41.68310547 C68.80000763 41.68135315 68.15250549 41.67960083 67.48538208 41.67779541 C65.34569617 41.67339553 63.20609299 41.67630867 61.06640625 41.6796875 C59.57811975 41.67901384 58.08983336 41.6780433 56.60154724 41.67678833 C53.48199415 41.67531382 50.36246969 41.67745771 47.24291992 41.68212891 C43.24700161 41.6878211 39.25115055 41.68454887 35.25523472 41.67855644 C32.1814473 41.67493997 29.10767577 41.6760945 26.03388786 41.67868423 C24.56070892 41.67935075 23.08752853 41.67853469 21.61435127 41.67620468 C19.55349034 41.67366091 17.49273766 41.67754329 15.43188477 41.68310547 C14.25956802 41.68390106 13.08725128 41.68469666 11.87940979 41.68551636 C9.35124871 41.79237099 7.27842298 42.06902209 4.875 42.8125 C4.85518066 43.61993652 4.83536133 44.42737305 4.81494141 45.25927734 C4.71994101 48.90235875 4.61016088 52.54484686 4.5 56.1875 C4.45359375 58.09402344 4.45359375 58.09402344 4.40625 60.0390625 C4.34824219 61.85664063 4.34824219 61.85664063 4.2890625 63.7109375 C4.2576416 64.83161621 4.2262207 65.95229492 4.19384766 67.10693359 C3.875 69.8125 3.875 69.8125 1.875 71.8125 C-1.125 72.0625 -1.125 72.0625 -4.125 71.8125 C-6.72433337 69.21316663 -6.38224368 68.11593934 -6.390625 64.5 C-6.39320313 63.42363281 -6.39578125 62.34726563 -6.3984375 61.23828125 C-6.39070312 60.10777344 -6.38296875 58.97726563 -6.375 57.8125 C-6.38273438 56.71292969 -6.39046875 55.61335938 -6.3984375 54.48046875 C-6.38616545 49.30779979 -6.18495216 44.54165201 -4.984375 39.5 C-4.08697867 35.55912213 -4.3634904 32.93205689 -5.58740234 29.01416016 C-6.74261237 24.28315014 -6.45216566 19.3426014 -6.4375 14.5 C-6.45361328 13.41654297 -6.46972656 12.33308594 -6.48632812 11.21679688 C-6.48697266 10.17974609 -6.48761719 9.14269531 -6.48828125 8.07421875 C-6.49126221 7.13537842 -6.49424316 6.19653809 -6.49731445 5.22924805 C-6.125 2.8125 -6.125 2.8125 -4.79760742 0.97192383 C-3.125 -0.1875 -3.125 -0.1875 0 0 Z " fill="#151B22" transform="translate(915.125,117.1875)"/>
<path d="M0 0 C5.75 0.75 5.75 0.75 8 3 C8.29309563 6.27599298 8.41456102 9.50887359 8.47851562 12.79492188 C8.67274733 17.86863288 9.56798451 21.50714222 12 26 C20.16216494 33.26095544 34.1832708 31.30927373 44.42529297 31.26074219 C47.12620346 31.24999521 49.82645307 31.26069976 52.52734375 31.2734375 C54.27083478 31.27211617 56.0143254 31.26955433 57.7578125 31.265625 C58.5518045 31.26967346 59.34579651 31.27372192 60.16384888 31.27789307 C67.0204427 31.22136209 75.73230876 30.80289495 81 26 C84.56879167 19.59716788 84.42235464 12.29448803 84.59375 5.16015625 C84.7278125 4.11730469 84.861875 3.07445313 85 2 C88 0 88 0 91.1875 0.375 C92.115625 0.58125 93.04375 0.7875 94 1 C96.95377234 9.86131702 95.32122665 20.43925198 92 29 C89.04291941 34.70294114 85.02743985 38.46080021 79.02734375 40.75390625 C70.01654218 43.02647172 60.22163889 42.17449972 51 42 C51.02094727 42.80219971 51.04189453 43.60439941 51.06347656 44.4309082 C51.14651316 48.05797848 51.19862204 51.68484906 51.25 55.3125 C51.28351562 56.57513672 51.31703125 57.83777344 51.3515625 59.13867188 C51.36445312 60.34716797 51.37734375 61.55566406 51.390625 62.80078125 C51.41157227 63.91622314 51.43251953 65.03166504 51.45410156 66.1809082 C51 69 51 69 49.13964844 70.89916992 C47 72 47 72 44.375 71.8125 C42 71 42 71 40 69 C39.77294922 66.29443359 39.77294922 66.29443359 39.8046875 62.8984375 C39.81113281 61.68671875 39.81757813 60.475 39.82421875 59.2265625 C39.84097656 57.95554688 39.85773438 56.68453125 39.875 55.375 C39.88402344 54.09625 39.89304687 52.8175 39.90234375 51.5 C39.92597697 48.33314833 39.95892371 45.16666576 40 42 C38.69546875 42.04640625 37.3909375 42.0928125 36.046875 42.140625 C14.24700865 42.68525648 14.24700865 42.68525648 5 35.75 C-2.28312836 25.7356985 -2.9120687 15.1660689 -2 3 C-1.34 2.01 -0.68 1.02 0 0 Z " fill="#141A20" transform="translate(463,117)"/>
<path d="M0 0 C1.30808121 -0.0030011 2.61616241 -0.0060022 3.96388245 -0.00909424 C5.38339635 0.0029117 6.80290628 0.0153947 8.22241211 0.02832031 C9.68541774 0.03138055 11.14842629 0.03325466 12.61143494 0.03399658 C15.67206031 0.03859073 18.73242128 0.05298266 21.79296875 0.07519531 C25.71261653 0.1035019 29.63205661 0.11441057 33.55179691 0.11887741 C36.57069466 0.12303737 39.58955065 0.13285927 42.60842705 0.1447525 C44.05369167 0.15044184 45.49896025 0.15520492 46.94423103 0.15901947 C48.96414726 0.16590742 50.98403303 0.18044118 53.00390625 0.1953125 C54.15242569 0.2021405 55.30094513 0.20896851 56.48426819 0.21600342 C61.09438435 0.43525711 61.09438435 0.43525711 63.43725586 1.35644531 C65.80124432 4.902428 65.7354396 6.5897363 65.74975586 10.79394531 C65.76651367 11.92703125 65.78327148 13.06011719 65.80053711 14.22753906 C65.39057069 17.75854018 64.97361086 18.91091847 62.43725586 21.35644531 C59.40124512 21.85092163 59.40124512 21.85092163 55.62670898 21.84228516 C54.93858627 21.84608185 54.25046356 21.84987854 53.54148865 21.85379028 C51.26669745 21.86120028 48.99318354 21.8398092 46.71850586 21.81738281 C45.13814443 21.81499851 43.55778014 21.81409304 41.97741699 21.81460571 C38.66518409 21.81147696 35.35338383 21.7949066 32.04125977 21.76806641 C27.79404298 21.73408623 23.5473017 21.72643778 19.2999649 21.72795677 C16.0365952 21.72741309 12.7733296 21.71644627 9.50999451 21.70195389 C7.94389128 21.69558627 6.37777624 21.69164708 4.81166077 21.69016647 C2.62350345 21.68583298 0.43585155 21.66833166 -1.75219727 21.64697266 C-3.62059265 21.63553726 -3.62059265 21.63553726 -5.5267334 21.62387085 C-8.56274414 21.35644531 -8.56274414 21.35644531 -11.56274414 19.35644531 C-11.92148145 16.60911545 -12.07240959 14.16634797 -12.06274414 11.41894531 C-12.09110352 10.68998047 -12.11946289 9.96101562 -12.14868164 9.20996094 C-12.15649414 7.07910156 -12.15649414 7.07910156 -11.56274414 3.35644531 C-7.78096925 0.3153113 -4.76380175 -0.01511079 0 0 Z " fill="#A0A7AA" transform="translate(262.562744140625,126.6435546875)"/>
<path d="M0 0 C4.35716337 1.58348217 6.82307138 4.97929347 9.6875 8.4375 C10.21569336 9.06495117 10.74388672 9.69240234 11.28808594 10.33886719 C12.86678613 12.21936366 14.4351059 14.10800698 16 16 C16.82628906 16.99644531 17.65257812 17.99289063 18.50390625 19.01953125 C23.39497267 24.96536678 28.2048559 30.97667185 33 37 C30.75 39.5 30.75 39.5 28 42 C24 42 24 42 22.44433594 40.71484375 C21.96254883 40.12832031 21.48076172 39.54179687 20.984375 38.9375 C20.45585937 38.30585938 19.92734375 37.67421875 19.3828125 37.0234375 C18.84398437 36.35570312 18.30515625 35.68796875 17.75 35 C17.19570313 34.33226562 16.64140625 33.66453125 16.0703125 32.9765625 C14.70301413 31.32637481 13.3501067 29.66428247 12 28 C8.11469474 28.81463614 6.33620846 30.24933102 3.4375 33 C-1.04925001 37.16248636 -5.68197754 41.06371051 -10.4375 44.9140625 C-13.67739086 47.55141268 -16.84317799 50.26408759 -20 53 C-18.39999959 56.68695747 -16.08619601 59.44358653 -13.5 62.5 C-10.91380399 65.55641347 -8.60000041 68.31304253 -7 72 C-8.98 73.65 -10.96 75.3 -13 77 C-17.35716337 75.41651783 -19.82307138 72.02070653 -22.6875 68.5625 C-23.21569336 67.93504883 -23.74388672 67.30759766 -24.28808594 66.66113281 C-25.86678613 64.78063634 -27.4351059 62.89199302 -29 61 C-29.82628906 60.00355469 -30.65257812 59.00710938 -31.50390625 57.98046875 C-33.68314488 55.33127258 -35.84301418 52.66732628 -38 50 C-39.15435547 48.59814453 -39.15435547 48.59814453 -40.33203125 47.16796875 C-41.43611328 45.81638672 -41.43611328 45.81638672 -42.5625 44.4375 C-43.22378906 43.63183594 -43.88507813 42.82617188 -44.56640625 41.99609375 C-46 40 -46 40 -46 38 C-44.46875 36.7109375 -44.46875 36.7109375 -42.5 35.375 C-41.8503125 34.92898437 -41.200625 34.48296875 -40.53125 34.0234375 C-40.0259375 33.68570313 -39.520625 33.34796875 -39 33 C-37.37251997 34.76860838 -35.74796543 36.53975676 -34.125 38.3125 C-33.66480469 38.81201172 -33.20460938 39.31152344 -32.73046875 39.82617188 C-30.61393392 42.14209043 -28.74473617 44.38289574 -27 47 C-22.85582396 45.29956413 -19.75627191 42.35845376 -16.4375 39.4375 C-15.19093441 38.35451237 -13.94352796 37.27249189 -12.6953125 36.19140625 C-12.0755957 35.65402832 -11.45587891 35.11665039 -10.81738281 34.56298828 C-0.38026864 25.58684576 -0.38026864 25.58684576 5 22 C3.58319756 17.67953102 1.46236215 14.99538801 -1.625 11.6875 C-2.44226563 10.80449219 -3.25953125 9.92148438 -4.1015625 9.01171875 C-4.72804688 8.34785156 -5.35453125 7.68398437 -6 7 C-4.47427344 3.67364118 -3.06655496 2.04436998 0 0 Z " fill="#92999B" transform="translate(459,199)"/>
<path d="M0 0 C0.5775 0.7425 1.155 1.485 1.75 2.25 C3.90775176 4.98030656 3.90775176 4.98030656 6.1875 7.1875 C8 9 8 9 9 11 C9.79513504 10.99333817 10.59027008 10.98667633 11.40950012 10.97981262 C18.8990646 10.91972759 26.38851239 10.87403905 33.87825489 10.84456348 C37.72891831 10.8289004 41.57938275 10.80765077 45.42993164 10.77368164 C49.14521429 10.74111054 52.86030544 10.72315183 56.57571983 10.71536827 C57.99393415 10.70982066 59.41213787 10.69898756 60.83027077 10.68280983 C62.81488467 10.6610681 64.79969086 10.65977487 66.78442383 10.65942383 C68.47986076 10.64943108 68.47986076 10.64943108 70.20954895 10.63923645 C73 11 73 11 74.90019226 12.32987976 C76 14 76 14 75.8125 17.0625 C75 20 75 20 73 22 C70.32980347 22.24050903 70.32980347 22.24050903 66.89794922 22.22705078 C65.61677216 22.22689972 64.33559509 22.22674866 63.01559448 22.22659302 C61.61195726 22.21637895 60.2083216 22.20594695 58.8046875 22.1953125 C57.37265215 22.19158291 55.94061425 22.18873569 54.50857544 22.18673706 C50.73721283 22.17909627 46.96600396 22.15944408 43.19470215 22.1373291 C39.34727051 22.11688019 35.49981406 22.1077374 31.65234375 22.09765625 C24.10149236 22.0761985 16.55076771 22.04205732 9 22 C9.02356567 23.15786011 9.02356567 23.15786011 9.04760742 24.33911133 C9.10989607 27.83016662 9.14897173 31.32110509 9.1875 34.8125 C9.21263672 36.02744141 9.23777344 37.24238281 9.26367188 38.49414062 C9.27817383 40.23920898 9.27817383 40.23920898 9.29296875 42.01953125 C9.31653442 43.62985229 9.31653442 43.62985229 9.34057617 45.27270508 C9 48 9 48 7.70825195 49.88549805 C6 51 6 51 2.375 50.8125 C1.26125 50.544375 0.1475 50.27625 -1 50 C-2.59583848 46.80832303 -2.16302758 43.3493448 -2.16796875 39.84375 C-2.17129715 39.02684692 -2.17462555 38.20994385 -2.17805481 37.36828613 C-2.18312549 35.63322513 -2.18546309 33.89815434 -2.18530273 32.16308594 C-2.18746845 29.53824136 -2.20556422 26.9138315 -2.22460938 24.2890625 C-2.25183094 15.93473307 -2.12779523 8.14112956 0 0 Z " fill="#131920" transform="translate(570,138)"/>
<path d="M0 0 C2.475 2.475 2.475 2.475 5 5 C2.24466727 7.19545918 -0.41974623 8.74148161 -3.625 10.1875 C-11.20199392 13.90874554 -19.32941887 19.13446901 -23 27 C-22.87754191 29.79561167 -22.87754191 29.79561167 -22 32 C-18.68835562 33.12372652 -17.00741393 32.9252863 -13.8125 31.5625 C-12.95140625 31.19640625 -12.0903125 30.8303125 -11.203125 30.453125 C-6.37827528 28.26429074 -1.58106647 26.0177887 3.19799805 23.73071289 C3.90480713 23.39289795 4.61161621 23.05508301 5.33984375 22.70703125 C5.97269287 22.4025708 6.60554199 22.09811035 7.25756836 21.78442383 C12.10338226 19.60289096 16.76789686 19.25255669 22 20 C25.12465186 21.6748134 27.39254192 23.78508385 29 27 C29.55233631 33.40710115 28.77932841 37.73693525 25 43 C8.04745938 62.39034399 8.04745938 62.39034399 -2.578125 63.1953125 C-3.90070313 63.16050781 -3.90070313 63.16050781 -5.25 63.125 C-6.58804687 63.09792969 -6.58804687 63.09792969 -7.953125 63.0703125 C-8.62859375 63.04710937 -9.3040625 63.02390625 -10 63 C-10 61.68 -10 60.36 -10 59 C-8.98421875 58.55011719 -7.9684375 58.10023438 -6.921875 57.63671875 C2.35788474 53.36036304 14.17998429 47.64003141 19 38 C19.24787017 33.85496339 19.24787017 33.85496339 18 30 C9.10191229 30 2.54204419 34.02708592 -5.140625 38.04150391 C-11.6563653 41.40032696 -18.5184953 44.77077034 -26 43 C-29 40.5625 -29 40.5625 -31 38 C-31.33 37.67 -31.66 37.34 -32 37 C-32.66142384 32.70493126 -32.85427897 28.66269062 -30.8359375 24.734375 C-29.32286884 22.70143147 -27.73894936 20.84245825 -26 19 C-25.195625 18.13375 -24.39125 17.2675 -23.5625 16.375 C-22.716875 15.59125 -21.87125 14.8075 -21 14 C-20.54625 13.55269531 -20.0925 13.10539062 -19.625 12.64453125 C-13.86143468 7.27000659 -6.86917367 3.75375094 0 0 Z " fill="#92999B" transform="translate(395,255)"/>
<path d="M0 0 C-0.49371094 0.67804688 -0.98742187 1.35609375 -1.49609375 2.0546875 C-5.71568397 8.18455499 -8.87250959 13.37502491 -8 21 C-6.40895887 26.32492956 -3.77049494 30.04683646 1 33 C6.51793717 35.39910312 11.14843386 36.09167586 16.8671875 33.90234375 C25.43761384 29.89497482 32.32840004 25.03953025 36.3515625 16.25390625 C37.87329543 10.96450926 37.73232642 5.19697926 36 0 C39.63 0 43.26 0 47 0 C48.41723546 6.66100668 48.02754581 12.34922836 44.66796875 18.3984375 C43.18060043 20.66526213 41.64422183 22.84441732 40 25 C39.09121094 26.22783203 39.09121094 26.22783203 38.1640625 27.48046875 C30.66782324 36.20803973 19.88756563 42.85670914 8.51953125 44.8125 C1.766267 45.3150685 -3.78918615 43.28444694 -9 39 C-14.70401542 33.37986716 -18.08451196 27.80065842 -18.4375 19.625 C-18.27569043 14.01560167 -16.76850271 9.83035962 -14 5 C-13.46375 3.989375 -12.9275 2.97875 -12.375 1.9375 C-8.62602183 -1.12087693 -4.65211007 -0.39951327 0 0 Z " fill="#92999B" transform="translate(705,0)"/>
<path d="M0 0 C3.73892951 1.50224846 5.54093605 3.60165298 8 6.75 C12.18977429 12.01853678 16.51829426 17.14005566 20.92578125 22.22753906 C23.39061697 25.08302182 25.7889742 27.93915817 28 31 C32.14445834 29.2994483 35.24295191 26.35783328 38.5625 23.4375 C39.81061264 22.35739623 41.05931796 21.27797697 42.30859375 20.19921875 C44.09346071 18.65282895 45.87796085 17.10603519 47.66064453 15.55712891 C49.14029307 14.27822043 50.63231045 13.01366316 52.125 11.75 C52.97320313 11.02296875 53.82140625 10.2959375 54.6953125 9.546875 C57 8 57 8 61 8 C61.99 8.99 61.99 8.99 63 10 C62.67865047 13.32075093 61.50665109 14.81109771 59.0078125 16.91796875 C58.08198364 17.70941284 58.08198364 17.70941284 57.13745117 18.5168457 C56.47334229 19.06816162 55.8092334 19.61947754 55.125 20.1875 C54.44606689 20.76266357 53.76713379 21.33782715 53.06762695 21.93041992 C51.05376291 23.63098985 49.02921113 25.31778962 47 27 C46.1958667 27.66950684 46.1958667 27.66950684 45.37548828 28.35253906 C38.99074227 33.65862255 32.49472828 38.8295764 26 44 C22.07166079 40.17313081 18.44824758 36.15838168 14.875 32 C14.03219482 31.02293091 14.03219482 31.02293091 13.17236328 30.02612305 C9.39071931 25.63513734 5.62513056 21.23042704 1.875 16.8125 C1.42624512 16.28462891 0.97749023 15.75675781 0.51513672 15.21289062 C-1.74708386 12.53675397 -3.93314419 9.83010649 -6 7 C-4.60667426 3.63279613 -3.0210714 2.0140476 0 0 Z " fill="#92999B" transform="translate(635,51)"/>
<path d="M0 0 C1.78954102 0.20109375 1.78954102 0.20109375 3.61523438 0.40625 C5.47051758 0.62667969 5.47051758 0.62667969 7.36328125 0.8515625 C9.2359668 1.06039062 9.2359668 1.06039062 11.14648438 1.2734375 C20.3949161 2.33612993 20.3949161 2.33612993 22.67578125 3.4765625 C22.67578125 6.1165625 22.67578125 8.7565625 22.67578125 11.4765625 C5.29182935 10.21000119 -12.01271347 8.50270092 -29.32421875 6.4765625 C-23.81180526 13.28008035 -18.2122234 19.99044036 -12.48730469 26.61572266 C-9.69633598 29.85075143 -6.97019405 33.1203848 -4.32421875 36.4765625 C-5.71754449 39.84376637 -7.30314735 41.4625149 -10.32421875 43.4765625 C-15.28276002 41.51101461 -17.74199267 37.54755328 -20.9296875 33.4453125 C-23.21055183 30.4919345 -23.21055183 30.4919345 -25.6875 28.1953125 C-30.4921714 23.34797084 -31.74804805 19.68996975 -31.86694336 13.00195312 C-31.80477686 9.1454986 -31.60857904 5.32332534 -31.32421875 1.4765625 C-30.74454346 1.45150635 -30.16486816 1.4264502 -29.56762695 1.40063477 C-26.92379768 1.28410016 -24.28027466 1.16163568 -21.63671875 1.0390625 C-20.72470703 0.99974609 -19.81269531 0.96042969 -18.87304688 0.91992188 C-17.98681641 0.87802734 -17.10058594 0.83613281 -16.1875 0.79296875 C-14.96994019 0.73798218 -14.96994019 0.73798218 -13.7277832 0.68188477 C-11.30571602 0.53139235 -11.30571602 0.53139235 -8.91552734 -0.07592773 C-5.78932778 -0.61581127 -3.15075701 -0.35930297 0 0 Z " fill="#92999B" transform="translate(545.32421875,157.5234375)"/>
<path d="M0 0 C2.42351367 0.32327694 4.84473975 0.55167429 7.28027344 0.765625 C8.99128572 0.92105394 10.70222458 1.07729352 12.41308594 1.234375 C13.63378784 1.34543579 13.63378784 1.34543579 14.87915039 1.45874023 C21.95511131 2.19001938 21.95511131 2.19001938 25.22558594 4.296875 C15.97789109 10.4620049 2.86376836 8.49817976 -7.77441406 8.296875 C-7.7534668 9.09907471 -7.73251953 9.90127441 -7.7109375 10.7277832 C-7.6279009 14.35485348 -7.57579202 17.98172406 -7.52441406 21.609375 C-7.49089844 22.87201172 -7.45738281 24.13464844 -7.42285156 25.43554688 C-7.40996094 26.64404297 -7.39707031 27.85253906 -7.38378906 29.09765625 C-7.3628418 30.21309814 -7.34189453 31.32854004 -7.3203125 32.4777832 C-7.77441406 35.296875 -7.77441406 35.296875 -9.63476562 37.19604492 C-11.77441406 38.296875 -11.77441406 38.296875 -14.39941406 38.109375 C-16.77441406 37.296875 -16.77441406 37.296875 -18.77441406 35.296875 C-19.00146484 32.59130859 -19.00146484 32.59130859 -18.96972656 29.1953125 C-18.96328125 27.98359375 -18.95683594 26.771875 -18.95019531 25.5234375 C-18.9334375 24.25242188 -18.91667969 22.98140625 -18.89941406 21.671875 C-18.89039063 20.393125 -18.88136719 19.114375 -18.87207031 17.796875 C-18.84843788 14.63012921 -18.81256592 11.46347915 -18.77441406 8.296875 C-25.37441406 8.296875 -31.97441406 8.296875 -38.77441406 8.296875 C-38.77441406 7.966875 -38.77441406 7.636875 -38.77441406 7.296875 C-36.96457031 7.31041016 -36.96457031 7.31041016 -35.11816406 7.32421875 C-26.30011428 7.5874088 -26.30011428 7.5874088 -18.32519531 4.63671875 C-17.7515625 3.98832031 -17.17792969 3.33992187 -16.58691406 2.671875 C-11.87729248 -2.49181324 -6.4318492 -0.91840402 0 0 Z " fill="#22272E" transform="translate(521.7744140625,150.703125)"/>
<path d="M0 0 C8.31000792 -0.04628625 16.61996221 -0.0818502 24.93006706 -0.10362434 C28.78854797 -0.11407343 32.64694085 -0.128253 36.50537109 -0.15087891 C40.22712192 -0.1725674 43.94878794 -0.18456014 47.67059708 -0.18975449 C49.09241191 -0.19345745 50.51422197 -0.20068819 51.93600082 -0.21146011 C53.92327114 -0.22592119 55.91062631 -0.22681646 57.89794922 -0.22705078 C59.03046112 -0.231492 60.16297302 -0.23593323 61.32980347 -0.24050903 C64 0 64 0 66 2 C65.43181818 7.56818182 65.43181818 7.56818182 64 9 C62.22251945 9.13561195 60.43969774 9.20182002 58.6574707 9.24047852 C56.9448278 9.27909752 56.9448278 9.27909752 55.19758606 9.3184967 C49.95648507 9.40243862 44.71543461 9.4686029 39.47387695 9.51489258 C36.70776132 9.5416046 33.94337708 9.59027191 31.17797852 9.65844727 C27.19818731 9.75631246 23.21920589 9.78850129 19.23828125 9.81640625 C18.00370682 9.85455948 16.76913239 9.89271271 15.49714661 9.93202209 C7.09084618 9.91296981 7.09084618 9.91296981 3.8477478 7.19869995 C0 2.17470817 0 2.17470817 0 0 Z " fill="#12181F" transform="translate(580,150)"/>
<path d="M0 0 C2.32647321 1.21886966 3.38768777 2.75716604 4.796875 4.94140625 C3.75789062 5.41449219 2.71890625 5.88757813 1.6484375 6.375 C-10.19396349 11.92514808 -20.20055644 18.52024277 -27.203125 29.94140625 C-29.24680339 36.07244142 -28.27120874 42.66641428 -27.203125 48.94140625 C-30.015625 51.00390625 -30.015625 51.00390625 -33.203125 52.94140625 C-36.203125 51.94140625 -36.203125 51.94140625 -37.1875 50.2265625 C-39.69830361 42.93754591 -39.85237492 36.26203537 -36.828125 29.06640625 C-30.85909815 18.34829964 -13.3106851 -0.35400758 0 0 Z " fill="#91989A" transform="translate(613.203125,74.05859375)"/>
<path d="M0 0 C3.71563534 1.23854511 4.59458591 2.69017178 7 5.75 C7.79535156 6.74644531 8.59070313 7.74289063 9.41015625 8.76953125 C9.83184082 9.29885254 10.25352539 9.82817383 10.68798828 10.37353516 C12.88938169 13.10254202 15.16425547 15.76831498 17.4375 18.4375 C22.66522278 24.59184196 27.84045364 30.78839863 33 37 C30.42215154 39.64752004 28.08351902 41.94432065 25 44 C19.61062858 38.12647701 14.41458687 32.14619413 9.41015625 25.94140625 C7.65183841 23.79551755 5.87564601 21.68472195 4.05859375 19.58984375 C3.56085449 19.01339111 3.06311523 18.43693848 2.55029297 17.84301758 C1.58201884 16.72491042 0.60862932 15.61120602 -0.37060547 14.50268555 C-2.97229146 11.48849104 -4.77340869 8.79892852 -6 5 C-1.60546875 0.99609375 -1.60546875 0.99609375 0 0 Z " fill="#92999B" transform="translate(484,178)"/>
<path d="M0 0 C6.2879759 4.95010869 11.07037669 10.7178043 16 17 C13.7832001 21.70937396 11.23393713 25.86927184 7 29 C3.23578907 29.66784387 -0.22128587 29.49198448 -4 29 C-3.21625 28.401875 -2.4325 27.80375 -1.625 27.1875 C1.14574323 25.08914751 1.14574323 25.08914751 3 22 C2.70390197 18.15072555 1.48092261 15.91238742 -1 13 C-4.90112709 13.56112102 -6.81175412 15.39509128 -9.625 18.0625 C-13.79086116 22 -13.79086116 22 -16 22 C-17.625 20 -17.625 20 -19 18 C-17.68059245 15.01618932 -16.33812674 13.15211542 -13.84765625 11.0546875 C-13.23599609 10.53519531 -12.62433594 10.01570313 -11.99414062 9.48046875 C-11.35669922 8.95066406 -10.71925781 8.42085937 -10.0625 7.875 C-9.42892578 7.33746094 -8.79535156 6.79992187 -8.14257812 6.24609375 C-5.4864434 4.00611473 -2.8967542 1.93116947 0 0 Z " fill="#91989A" transform="translate(627,89)"/>
<path d="M0 0 C1.24716797 0.00902344 2.49433594 0.01804687 3.77929688 0.02734375 C6.83223504 0.05073791 9.88476306 0.08351826 12.9375 0.125 C12.9375 0.455 12.9375 0.785 12.9375 1.125 C11.74125 1.125 10.545 1.125 9.3125 1.125 C3.83842271 1.68799846 -0.36201871 4.28634702 -4.92431641 7.15429688 C-11.60424206 11.30085261 -18.27112535 13.07549416 -26.0625 12.125 C-27.51802584 11.63382432 -28.95778029 11.09270341 -30.375 10.5 C-33.84920786 8.7691932 -33.84920786 8.7691932 -36.5625 9.9375 C-37.0575 10.329375 -37.5525 10.72125 -38.0625 11.125 C-28.85792939 0.07951527 -13.26035627 -0.18329041 0 0 Z " fill="#8D9497" transform="translate(619.0625,126.875)"/>
<path d="M0 0 C0.5775 0.7425 1.155 1.485 1.75 2.25 C3.90775176 4.98030656 3.90775176 4.98030656 6.1875 7.1875 C8 9 8 9 9 11 C30.12 11 51.24 11 73 11 C73 11.33 73 11.66 73 12 C42.31 12.495 42.31 12.495 11 13 C12.65 14.98 14.3 16.96 16 19 C16 19.66 16 20.32 16 21 C34.81 21 53.62 21 73 21 C73 21.33 73 21.66 73 22 C51.88 22 30.76 22 9 22 C8.34 20.68 7.68 19.36 7 18 C5.62164179 16.40143071 4.22424588 14.81916179 2.8125 13.25 C-0.90966062 8.72975449 -0.90966062 8.72975449 -1.30078125 5.5703125 C-1 3.375 -1 3.375 0 0 Z " fill="#40464C" transform="translate(570,138)"/>
<path d="M0 0 C2.59774911 1.38546619 4.70704792 3.01271059 6.875 5 C6.875 5.66 6.875 6.32 6.875 7 C6.11574219 7.36351562 5.35648438 7.72703125 4.57421875 8.1015625 C-1.59094189 11.1043482 -1.59094189 11.1043482 -6.1875 16 C-6.496875 16.99 -6.80625 17.98 -7.125 19 C-7.516875 20.11375 -7.90875 21.2275 -8.3125 22.375 C-8.7146875 23.674375 -8.7146875 23.674375 -9.125 25 C-16.125 18 -16.125 18 -16.6875 15.375 C-15.73347199 9.65083196 -11.76012356 6.00641151 -7.2421875 2.56640625 C-4.850784 1.07048501 -2.85920897 0 0 0 Z " fill="#151B21" transform="translate(587.125,123)"/>
<path d="M0 0 C6.93 0 13.86 0 21 0 C21.33 2.97 21.66 5.94 22 9 C23.50447987 11.65184618 23.50447987 11.65184618 25.5625 13.5625 C26.696875 14.696875 27.83125 15.83125 29 17 C29.33 11.72 29.66 6.44 30 1 C30.33 1 30.66 1 31 1 C31.11586755 5.43728151 31.18714058 9.87417591 31.25 14.3125 C31.28351562 15.57513672 31.31703125 16.83777344 31.3515625 18.13867188 C31.36445312 19.34716797 31.37734375 20.55566406 31.390625 21.80078125 C31.41157227 22.91622314 31.43251953 24.03166504 31.45410156 25.1809082 C31 28 31 28 29.13964844 29.89916992 C27 31 27 31 24.375 30.8125 C22 30 22 30 20 28 C19.77294922 25.29443359 19.77294922 25.29443359 19.8046875 21.8984375 C19.81113281 20.68671875 19.81757813 19.475 19.82421875 18.2265625 C19.84097656 16.95554688 19.85773438 15.68453125 19.875 14.375 C19.88402344 13.09625 19.89304687 11.8175 19.90234375 10.5 C19.92597618 7.33325421 19.96184814 4.16660415 20 1 C13.4 1 6.8 1 0 1 C0 0.67 0 0.34 0 0 Z " fill="#3C4248" transform="translate(483,158)"/>
<path d="M0 0 C2.00377361 0.05416625 4.00563754 0.18184111 6.00390625 0.33984375 C7.82631836 0.4800293 7.82631836 0.4800293 9.68554688 0.62304688 C11.60463867 0.77870117 11.60463867 0.77870117 13.5625 0.9375 C14.84576172 1.03740234 16.12902344 1.13730469 17.45117188 1.24023438 C20.63451809 1.48874839 23.81739258 1.74222363 27 2 C23.87070822 3.83069903 21.62356854 4.23931181 18.015625 4.1953125 C17.08105469 4.18886719 16.14648438 4.18242187 15.18359375 4.17578125 C14.21550781 4.15902344 13.24742187 4.14226562 12.25 4.125 C11.26644531 4.11597656 10.28289063 4.10695312 9.26953125 4.09765625 C6.84624974 4.07412925 4.42309369 4.03825937 2 4 C2 9.61 2 15.22 2 21 C0.35 19.35 -1.3 17.7 -3 16 C-4.1446875 15.071875 -4.1446875 15.071875 -5.3125 14.125 C-7 12 -7 12 -7.625 8.5 C-7 5 -7 5 -4.0625 2.625 C-3.051875 2.08875 -2.04125 1.5525 -1 1 C-0.67 0.67 -0.34 0.34 0 0 Z " fill="#141A20" transform="translate(511,155)"/>
<path d="M0 0 C1.17734163 1.14271393 2.34731538 2.29375911 3.484375 3.4765625 C4.98223654 5.03309153 4.98223654 5.03309153 6.703125 6.3984375 C9.9277315 9.36688367 10.95948648 11.07629179 11.15625 15.5625 C10.9014129 19.07358898 10.53083147 22.520641 10 26 C8.86918929 24.90452713 7.7471129 23.79932098 6.65625 22.6640625 C4.95176611 20.90945352 4.95176611 20.90945352 2.78125 19.0859375 C0.36047238 16.80609556 -1.42555503 14.93896394 -3 12 C-2.79211166 7.67592254 -1.62197166 3.9941052 0 0 Z " fill="#909799" transform="translate(558,133)"/>
<path d="M0 0 C3.17729325 3.17729325 5.74084058 5.78394406 8.3125 9.3125 C8.82425781 10.00988281 9.33601562 10.70726562 9.86328125 11.42578125 C10.23839844 11.94527344 10.61351562 12.46476563 11 13 C8.00496806 20.93683463 8.00496806 20.93683463 4 23 C2.68 23 1.36 23 0 23 C0 15.41 0 7.82 0 0 Z " fill="#10161C" transform="translate(569,146)"/>
<path d="M0 0 C3.96616695 0.88999143 7.52826078 2.26173079 11.26953125 3.82421875 C11.95789063 4.10587891 12.64625 4.38753906 13.35546875 4.67773438 C15.03743034 5.36687141 16.71630822 6.06352673 18.39453125 6.76171875 C18.39453125 7.09171875 18.39453125 7.42171875 18.39453125 7.76171875 C8.82453125 7.76171875 -0.74546875 7.76171875 -10.60546875 7.76171875 C-8.95546875 6.11171875 -7.30546875 4.46171875 -5.60546875 2.76171875 C-5.13109375 2.14296875 -4.65671875 1.52421875 -4.16796875 0.88671875 C-2.60546875 -0.23828125 -2.60546875 -0.23828125 0 0 Z " fill="#92999B" transform="translate(328.60546875,310.23828125)"/>
<path d="M0 0 C0.33 0 0.66 0 1 0 C1 6.93 1 13.86 1 21 C8.01383754 18.92750665 8.01383754 18.92750665 9.4375 14.8125 C9.623125 13.884375 9.80875 12.95625 10 12 C10.33 12 10.66 12 11 12 C11 20.58 11 29.16 11 38 C10.67 38 10.34 38 10 38 C10 33.38 10 28.76 10 24 C8.35 24.66 6.7 25.32 5 26 C3.68 26 2.36 26 1 26 C1 29.96 1 33.92 1 38 C0.67 38 0.34 38 0 38 C0 25.46 0 12.92 0 0 Z " fill="#40464C" transform="translate(568,148)"/>
<path d="M0 0 C-4.59855567 4.99271758 -7.81267534 7.03253754 -14.5625 7.375 C-17.98165689 7.31801405 -18.75810826 7.18879355 -21.5625 5 C-22.2740625 4.01 -22.2740625 4.01 -23 3 C-17.93862074 -2.06137926 -6.66563649 -0.09144928 0 0 Z " fill="#141A21" transform="translate(616,118)"/>
<path d="M0 0 C2.72309544 1.27645099 4.78861242 2.91039472 7 4.9375 C7 5.5975 7 6.2575 7 6.9375 C5.75823305 7.63976141 4.50614401 8.32379109 3.25 9 C2.55390625 9.38285156 1.8578125 9.76570312 1.140625 10.16015625 C-1.39761564 11.08188962 -2.50762661 10.8859719 -5 9.9375 C-6.8125 8.625 -6.8125 8.625 -8 6.9375 C-8 4.9375 -8 4.9375 -7 2.9375 C-4.62730372 1.07781913 -3.06833114 -0.09588535 0 0 Z " fill="#13191F" transform="translate(587,123.0625)"/>
<path d="M0 0 C-1.90265799 3.92266053 -3.34671131 6.42120799 -7 9 C-11.3639583 9.42898134 -15.62957307 9.28794907 -20 9 C-19.23171875 8.39671875 -18.4634375 7.7934375 -17.671875 7.171875 C-14.90281814 4.99694165 -14.90281814 4.99694165 -12.25 2.25 C-8.01727186 -0.68035025 -4.98443015 -0.49844302 0 0 Z " fill="#10161C" transform="translate(633,118)"/>
<path d="M0 0 C0.928125 0.20625 1.85625 0.4125 2.8125 0.625 C3.99931726 4.18545177 3.90939832 7.06308337 3.875 10.8125 C3.86597656 12.08480469 3.85695313 13.35710937 3.84765625 14.66796875 C3.83605469 15.64378906 3.82445312 16.61960938 3.8125 17.625 C3.39871094 16.73167969 3.39871094 16.73167969 2.9765625 15.8203125 C1.87970018 13.75173322 0.74121222 12.23543295 -0.8125 10.5 C-3.1875 7.625 -3.1875 7.625 -3.1875 5.625 C-4.1775 5.955 -5.1675 6.285 -6.1875 6.625 C-6.375 4.25 -6.375 4.25 -6.1875 1.625 C-3.1875 -0.375 -3.1875 -0.375 0 0 Z " fill="#262C32" transform="translate(554.1875,117.375)"/>
<path d="M0 0 C6.63157895 6.44736842 6.63157895 6.44736842 9 10 C8.75 12.3125 8.75 12.3125 8 14 C5.125 14.625 5.125 14.625 2 15 C0 13 0 13 -0.1953125 9.9609375 C-0.17210937 8.77757812 -0.14890625 7.59421875 -0.125 6.375 C-0.10695313 5.18648437 -0.08890625 3.99796875 -0.0703125 2.7734375 C-0.04710937 1.85820312 -0.02390625 0.94296875 0 0 Z " fill="#12181F" transform="translate(504,174)"/>
<path d="M0 0 C2.25245881 2.68841859 3.88213958 4.64641875 5 8 C6.32 8 7.64 8 9 8 C8.34 9.98 7.68 11.96 7 14 C6.01 14 5.02 14 4 14 C1.9375 11.625 1.9375 11.625 0 9 C-0.66 8.34 -1.32 7.68 -2 7 C-1.34 4.69 -0.68 2.38 0 0 Z " fill="#242930" transform="translate(547,134)"/>
<path d="M0 0 C2.64 0.33 5.28 0.66 8 1 C6.33333333 2.66666667 4.66666667 4.33333333 3 6 C2.54625 6.598125 2.0925 7.19625 1.625 7.8125 C-1.05185981 9.76866678 -3.80829261 9.18066268 -7 9 C-6.57847656 8.51789063 -6.15695312 8.03578125 -5.72265625 7.5390625 C-5.17480469 6.90742187 -4.62695312 6.27578125 -4.0625 5.625 C-3.51722656 4.99851562 -2.97195313 4.37203125 -2.41015625 3.7265625 C-0.93041376 2.04367666 -0.93041376 2.04367666 0 0 Z " fill="#23282F" transform="translate(633,118)"/>
<path d="M0 0 C2.12038635 2.61514317 4.13091744 5.19637616 6 8 C4.02 8.99 4.02 8.99 2 10 C0.35 8.68 -1.3 7.36 -3 6 C-3.99 6.495 -3.99 6.495 -5 7 C-3.70700306 4.11562221 -2.34058637 2.12780579 0 0 Z " fill="#252A31" transform="translate(578,127)"/>
<path d="M0 0 C0 2.64 0 5.28 0 8 C-0.99 7.67 -1.98 7.34 -3 7 C-4.1875 4.4375 -4.1875 4.4375 -5 2 C-2 0 -2 0 0 0 Z " fill="#878E90" transform="translate(548,126)"/>
<path d="M0 0 C1.32 0 2.64 0 4 0 C4.33 2.31 4.66 4.62 5 7 C3.29115995 5.37660195 1.62553283 3.70680947 0 2 C0 1.34 0 0.68 0 0 Z " fill="#171D24" transform="translate(553,118)"/>
</svg>
